<mxfile host="app.diagrams.net" modified="2024-05-28T20:46:26.198Z" agent="Mozilla/5.0 (Windows NT 10.0; Win64; x64) AppleWebKit/537.36 (KHTML, like Gecko) Chrome/125.0.0.0 Safari/537.36" etag="YmLYXH3yqvlSWTpE6t5E" version="24.4.6" type="device">
  <diagram name="Страница — 1" id="2iGDmq69TocVkluDc-hZ">
    <mxGraphModel dx="9871" dy="5458" grid="1" gridSize="10" guides="1" tooltips="1" connect="1" arrows="1" fold="1" page="1" pageScale="1" pageWidth="827" pageHeight="1169" math="0" shadow="0">
      <root>
        <mxCell id="0" />
        <mxCell id="1" parent="0" />
        <mxCell id="SFgPAnBROxGkWkuP0WC9-62" value="" style="rounded=1;whiteSpace=wrap;html=1;strokeColor=none;fillColor=#BAC8D3;fontSize=24;fontColor=#23445D;align=center;opacity=60;direction=south;" parent="1" vertex="1">
          <mxGeometry x="71" y="-1020" width="860" height="1570" as="geometry" />
        </mxCell>
        <mxCell id="OsrXYmDs21O4-yx2xXHt-127" value="" style="rounded=1;whiteSpace=wrap;html=1;strokeColor=#b85450;fillColor=#f8cecc;fontSize=24;align=center;opacity=60;" parent="1" vertex="1">
          <mxGeometry x="2674" y="-1120" width="730" height="790" as="geometry" />
        </mxCell>
        <mxCell id="OsrXYmDs21O4-yx2xXHt-4" value="" style="rounded=1;whiteSpace=wrap;html=1;strokeColor=none;fillColor=#BAC8D3;fontSize=24;fontColor=#23445D;align=center;opacity=60;" parent="1" vertex="1">
          <mxGeometry x="-3842" y="-2110" width="1570" height="790" as="geometry" />
        </mxCell>
        <mxCell id="OsrXYmDs21O4-yx2xXHt-30" value="" style="shape=mxgraph.cisco.switches.workgroup_switch;html=1;dashed=0;fillColor=#10739E;strokeColor=#ffffff;strokeWidth=2;verticalLabelPosition=bottom;verticalAlign=top;fontFamily=Helvetica;fontSize=36;fontColor=#FFB366" parent="1" vertex="1">
          <mxGeometry x="-3207" y="-1953" width="270" height="140" as="geometry" />
        </mxCell>
        <mxCell id="OsrXYmDs21O4-yx2xXHt-31" value="" style="shape=mxgraph.cisco.computers_and_peripherals.printer;sketch=0;html=1;pointerEvents=1;dashed=0;fillColor=#036897;strokeColor=#ffffff;strokeWidth=2;verticalLabelPosition=bottom;verticalAlign=top;align=center;outlineConnect=0;" parent="1" vertex="1">
          <mxGeometry x="-3790" y="-1985" width="401" height="204" as="geometry" />
        </mxCell>
        <mxCell id="OsrXYmDs21O4-yx2xXHt-32" value="" style="shape=mxgraph.cisco.computers_and_peripherals.terminal;sketch=0;html=1;pointerEvents=1;dashed=0;fillColor=#036897;strokeColor=#ffffff;strokeWidth=2;verticalLabelPosition=bottom;verticalAlign=top;align=center;outlineConnect=0;" parent="1" vertex="1">
          <mxGeometry x="-2702" y="-1980" width="250" height="190" as="geometry" />
        </mxCell>
        <mxCell id="OsrXYmDs21O4-yx2xXHt-36" value="" style="endArrow=classic;startArrow=classic;html=1;rounded=0;entryX=0.15;entryY=0.5;entryDx=0;entryDy=0;entryPerimeter=0;exitX=0.98;exitY=0.5;exitDx=0;exitDy=0;exitPerimeter=0;strokeWidth=3;strokeColor=#00CC00;" parent="1" source="OsrXYmDs21O4-yx2xXHt-30" target="OsrXYmDs21O4-yx2xXHt-32" edge="1">
          <mxGeometry width="50" height="50" relative="1" as="geometry">
            <mxPoint x="-2782" y="-2180" as="sourcePoint" />
            <mxPoint x="-2732" y="-2230" as="targetPoint" />
          </mxGeometry>
        </mxCell>
        <mxCell id="OsrXYmDs21O4-yx2xXHt-37" value="" style="endArrow=classic;startArrow=classic;html=1;rounded=0;entryX=0;entryY=0.5;entryDx=0;entryDy=0;entryPerimeter=0;exitX=0.8;exitY=0.5;exitDx=0;exitDy=0;exitPerimeter=0;strokeColor=#00CC00;strokeWidth=3;" parent="1" source="OsrXYmDs21O4-yx2xXHt-31" target="OsrXYmDs21O4-yx2xXHt-30" edge="1">
          <mxGeometry width="50" height="50" relative="1" as="geometry">
            <mxPoint x="-3302" y="-2200" as="sourcePoint" />
            <mxPoint x="-3252" y="-2250" as="targetPoint" />
          </mxGeometry>
        </mxCell>
        <mxCell id="OsrXYmDs21O4-yx2xXHt-38" value="" style="rounded=1;whiteSpace=wrap;html=1;strokeColor=none;fillColor=#BAC8D3;fontSize=24;fontColor=#23445D;align=center;opacity=60;direction=south;" parent="1" vertex="1">
          <mxGeometry x="-3550" y="-850" width="860" height="1570" as="geometry" />
        </mxCell>
        <mxCell id="OsrXYmDs21O4-yx2xXHt-41" value="" style="shape=mxgraph.cisco.switches.workgroup_switch;html=1;dashed=0;fillColor=#10739E;strokeColor=#ffffff;strokeWidth=2;verticalLabelPosition=bottom;verticalAlign=top;fontFamily=Helvetica;fontSize=36;fontColor=#FFB366" parent="1" vertex="1">
          <mxGeometry x="-3490" y="-370" width="270" height="140" as="geometry" />
        </mxCell>
        <mxCell id="OsrXYmDs21O4-yx2xXHt-42" value="" style="shape=mxgraph.cisco.computers_and_peripherals.printer;sketch=0;html=1;pointerEvents=1;dashed=0;fillColor=#036897;strokeColor=#ffffff;strokeWidth=2;verticalLabelPosition=bottom;verticalAlign=top;align=center;outlineConnect=0;" parent="1" vertex="1">
          <mxGeometry x="-3555.5" y="320" width="401" height="204" as="geometry" />
        </mxCell>
        <mxCell id="OsrXYmDs21O4-yx2xXHt-43" value="" style="shape=mxgraph.cisco.computers_and_peripherals.terminal;sketch=0;html=1;pointerEvents=1;dashed=0;fillColor=#036897;strokeColor=#ffffff;strokeWidth=2;verticalLabelPosition=bottom;verticalAlign=top;align=center;outlineConnect=0;" parent="1" vertex="1">
          <mxGeometry x="-3480" y="-686.5" width="250" height="190" as="geometry" />
        </mxCell>
        <mxCell id="OsrXYmDs21O4-yx2xXHt-46" value="" style="endArrow=classic;startArrow=classic;html=1;rounded=0;entryX=0.5;entryY=1;entryDx=0;entryDy=0;entryPerimeter=0;exitX=0.5;exitY=0;exitDx=0;exitDy=0;exitPerimeter=0;strokeWidth=3;strokeColor=#00CC00;" parent="1" source="OsrXYmDs21O4-yx2xXHt-41" target="OsrXYmDs21O4-yx2xXHt-43" edge="1">
          <mxGeometry width="50" height="50" relative="1" as="geometry">
            <mxPoint x="-2810" y="-530" as="sourcePoint" />
            <mxPoint x="-2760" y="-580" as="targetPoint" />
          </mxGeometry>
        </mxCell>
        <mxCell id="OsrXYmDs21O4-yx2xXHt-47" value="" style="endArrow=classic;startArrow=classic;html=1;rounded=0;entryX=0.5;entryY=0.98;entryDx=0;entryDy=0;entryPerimeter=0;strokeColor=#00CC00;strokeWidth=3;" parent="1" source="OsrXYmDs21O4-yx2xXHt-42" target="OsrXYmDs21O4-yx2xXHt-41" edge="1">
          <mxGeometry width="50" height="50" relative="1" as="geometry">
            <mxPoint x="-3330" y="-550" as="sourcePoint" />
            <mxPoint x="-3280" y="-600" as="targetPoint" />
          </mxGeometry>
        </mxCell>
        <mxCell id="OsrXYmDs21O4-yx2xXHt-49" value="" style="rounded=1;whiteSpace=wrap;html=1;strokeColor=none;fillColor=#BAC8D3;fontSize=24;fontColor=#23445D;align=center;opacity=60;" parent="1" vertex="1">
          <mxGeometry x="-3690" y="1530" width="1570" height="790" as="geometry" />
        </mxCell>
        <mxCell id="OsrXYmDs21O4-yx2xXHt-52" value="" style="shape=mxgraph.cisco.switches.workgroup_switch;html=1;dashed=0;fillColor=#10739E;strokeColor=#ffffff;strokeWidth=2;verticalLabelPosition=bottom;verticalAlign=top;fontFamily=Helvetica;fontSize=36;fontColor=#FFB366" parent="1" vertex="1">
          <mxGeometry x="-3115" y="1684" width="270" height="140" as="geometry" />
        </mxCell>
        <mxCell id="OsrXYmDs21O4-yx2xXHt-54" value="" style="shape=mxgraph.cisco.computers_and_peripherals.terminal;sketch=0;html=1;pointerEvents=1;dashed=0;fillColor=#036897;strokeColor=#ffffff;strokeWidth=2;verticalLabelPosition=bottom;verticalAlign=top;align=center;outlineConnect=0;" parent="1" vertex="1">
          <mxGeometry x="-3520" y="1630" width="250" height="190" as="geometry" />
        </mxCell>
        <mxCell id="OsrXYmDs21O4-yx2xXHt-57" value="" style="endArrow=classic;startArrow=classic;html=1;rounded=0;strokeWidth=3;strokeColor=#00CC00;entryX=1;entryY=0.5;entryDx=0;entryDy=0;entryPerimeter=0;" parent="1" target="OsrXYmDs21O4-yx2xXHt-54" edge="1">
          <mxGeometry width="50" height="50" relative="1" as="geometry">
            <mxPoint x="-3070" y="1725" as="sourcePoint" />
            <mxPoint x="-2560" y="1450" as="targetPoint" />
          </mxGeometry>
        </mxCell>
        <mxCell id="OsrXYmDs21O4-yx2xXHt-59" value="" style="rounded=1;whiteSpace=wrap;html=1;strokeColor=none;fillColor=#BAC8D3;fontSize=24;fontColor=#23445D;align=center;opacity=60;" parent="1" vertex="1">
          <mxGeometry x="-190" y="1520" width="1570" height="790" as="geometry" />
        </mxCell>
        <mxCell id="OsrXYmDs21O4-yx2xXHt-60" value="" style="shape=mxgraph.cisco.routers.router;sketch=0;html=1;pointerEvents=1;dashed=0;fillColor=#036897;strokeColor=#ffffff;strokeWidth=2;verticalLabelPosition=bottom;verticalAlign=top;align=center;outlineConnect=0;" parent="1" vertex="1">
          <mxGeometry x="170" y="-130" width="220" height="173" as="geometry" />
        </mxCell>
        <mxCell id="OsrXYmDs21O4-yx2xXHt-62" value="" style="shape=mxgraph.cisco.switches.workgroup_switch;html=1;dashed=0;fillColor=#10739E;strokeColor=#ffffff;strokeWidth=2;verticalLabelPosition=bottom;verticalAlign=top;fontFamily=Helvetica;fontSize=36;fontColor=#FFB366" parent="1" vertex="1">
          <mxGeometry x="160" y="1754" width="270" height="140" as="geometry" />
        </mxCell>
        <mxCell id="OsrXYmDs21O4-yx2xXHt-63" value="" style="shape=mxgraph.cisco.computers_and_peripherals.printer;sketch=0;html=1;pointerEvents=1;dashed=0;fillColor=#036897;strokeColor=#ffffff;strokeWidth=2;verticalLabelPosition=bottom;verticalAlign=top;align=center;outlineConnect=0;" parent="1" vertex="1">
          <mxGeometry x="-138" y="1987" width="401" height="204" as="geometry" />
        </mxCell>
        <mxCell id="OsrXYmDs21O4-yx2xXHt-64" value="" style="shape=mxgraph.cisco.computers_and_peripherals.terminal;sketch=0;html=1;pointerEvents=1;dashed=0;fillColor=#036897;strokeColor=#ffffff;strokeWidth=2;verticalLabelPosition=bottom;verticalAlign=top;align=center;outlineConnect=0;" parent="1" vertex="1">
          <mxGeometry x="460" y="2001" width="250" height="190" as="geometry" />
        </mxCell>
        <mxCell id="OsrXYmDs21O4-yx2xXHt-65" value="" style="endArrow=classic;startArrow=classic;html=1;rounded=0;strokeWidth=3;entryX=0;entryY=0.5;entryDx=0;entryDy=0;entryPerimeter=0;exitX=1;exitY=0.5;exitDx=0;exitDy=0;exitPerimeter=0;" parent="1" source="OsrXYmDs21O4-yx2xXHt-60" target="SFgPAnBROxGkWkuP0WC9-65" edge="1">
          <mxGeometry width="50" height="50" relative="1" as="geometry">
            <mxPoint x="975.5" y="-240" as="sourcePoint" />
            <mxPoint x="865.5" y="2420" as="targetPoint" />
          </mxGeometry>
        </mxCell>
        <mxCell id="OsrXYmDs21O4-yx2xXHt-67" value="" style="endArrow=classic;startArrow=classic;html=1;rounded=0;entryX=0.6;entryY=-0.005;entryDx=0;entryDy=0;entryPerimeter=0;exitX=0.759;exitY=0.924;exitDx=0;exitDy=0;exitPerimeter=0;strokeWidth=3;strokeColor=#00CC00;" parent="1" source="OsrXYmDs21O4-yx2xXHt-62" target="OsrXYmDs21O4-yx2xXHt-64" edge="1">
          <mxGeometry width="50" height="50" relative="1" as="geometry">
            <mxPoint x="870" y="1792" as="sourcePoint" />
            <mxPoint x="920" y="1742" as="targetPoint" />
          </mxGeometry>
        </mxCell>
        <mxCell id="OsrXYmDs21O4-yx2xXHt-68" value="" style="endArrow=classic;startArrow=classic;html=1;rounded=0;entryX=0;entryY=0.98;entryDx=0;entryDy=0;entryPerimeter=0;strokeColor=#00CC00;strokeWidth=3;exitX=0.4;exitY=0.007;exitDx=0;exitDy=0;exitPerimeter=0;" parent="1" source="OsrXYmDs21O4-yx2xXHt-63" target="OsrXYmDs21O4-yx2xXHt-62" edge="1">
          <mxGeometry width="50" height="50" relative="1" as="geometry">
            <mxPoint x="70" y="1980" as="sourcePoint" />
            <mxPoint x="400" y="1722" as="targetPoint" />
          </mxGeometry>
        </mxCell>
        <mxCell id="OsrXYmDs21O4-yx2xXHt-73" value="" style="endArrow=none;dashed=1;html=1;rounded=0;strokeWidth=3;exitX=1;exitY=0.5;exitDx=0;exitDy=0;exitPerimeter=0;entryX=0.916;entryY=1.032;entryDx=0;entryDy=0;entryPerimeter=0;" parent="1" source="OsrXYmDs21O4-yx2xXHt-32" target="OsrXYmDs21O4-yx2xXHt-74" edge="1">
          <mxGeometry width="50" height="50" relative="1" as="geometry">
            <mxPoint x="-2182" y="-1880" as="sourcePoint" />
            <mxPoint x="-2092" y="-1885" as="targetPoint" />
          </mxGeometry>
        </mxCell>
        <mxCell id="OsrXYmDs21O4-yx2xXHt-74" value="87 ШТ" style="text;html=1;align=center;verticalAlign=middle;resizable=0;points=[];autosize=1;strokeColor=none;fillColor=none;fontSize=24;" parent="1" vertex="1">
          <mxGeometry x="-2167" y="-1927" width="90" height="40" as="geometry" />
        </mxCell>
        <mxCell id="OsrXYmDs21O4-yx2xXHt-75" value="" style="endArrow=none;dashed=1;html=1;rounded=0;strokeWidth=3;exitX=0.5;exitY=0;exitDx=0;exitDy=0;exitPerimeter=0;" parent="1" source="OsrXYmDs21O4-yx2xXHt-43" edge="1">
          <mxGeometry width="50" height="50" relative="1" as="geometry">
            <mxPoint x="-3280" y="-950" as="sourcePoint" />
            <mxPoint x="-3355" y="-1010" as="targetPoint" />
          </mxGeometry>
        </mxCell>
        <mxCell id="OsrXYmDs21O4-yx2xXHt-76" value="91 ШТ" style="text;html=1;align=center;verticalAlign=middle;resizable=0;points=[];autosize=1;strokeColor=none;fillColor=none;fontSize=24;" parent="1" vertex="1">
          <mxGeometry x="1420" y="-1860" width="90" height="40" as="geometry" />
        </mxCell>
        <mxCell id="OsrXYmDs21O4-yx2xXHt-77" value="" style="endArrow=none;dashed=1;html=1;rounded=0;exitX=0.585;exitY=0.091;exitDx=0;exitDy=0;strokeWidth=3;exitPerimeter=0;" parent="1" source="OsrXYmDs21O4-yx2xXHt-54" edge="1">
          <mxGeometry width="50" height="50" relative="1" as="geometry">
            <mxPoint x="-2090" y="2177" as="sourcePoint" />
            <mxPoint x="-3374" y="1440" as="targetPoint" />
          </mxGeometry>
        </mxCell>
        <mxCell id="OsrXYmDs21O4-yx2xXHt-78" value="2 ШТ" style="text;html=1;align=center;verticalAlign=middle;resizable=0;points=[];autosize=1;strokeColor=none;fillColor=none;fontSize=24;" parent="1" vertex="1">
          <mxGeometry x="-3469" y="1430" width="80" height="40" as="geometry" />
        </mxCell>
        <mxCell id="OsrXYmDs21O4-yx2xXHt-79" value="" style="endArrow=none;dashed=1;html=1;rounded=0;exitX=1;exitY=0.5;exitDx=0;exitDy=0;exitPerimeter=0;strokeWidth=3;" parent="1" source="OsrXYmDs21O4-yx2xXHt-64" edge="1">
          <mxGeometry width="50" height="50" relative="1" as="geometry">
            <mxPoint x="1510" y="2077" as="sourcePoint" />
            <mxPoint x="1570" y="2089" as="targetPoint" />
          </mxGeometry>
        </mxCell>
        <mxCell id="OsrXYmDs21O4-yx2xXHt-80" value="165 ШТ" style="text;html=1;align=center;verticalAlign=middle;resizable=0;points=[];autosize=1;strokeColor=none;fillColor=none;fontSize=24;" parent="1" vertex="1">
          <mxGeometry x="1450" y="2054" width="110" height="40" as="geometry" />
        </mxCell>
        <mxCell id="OsrXYmDs21O4-yx2xXHt-81" value="" style="endArrow=none;dashed=1;html=1;rounded=0;strokeWidth=3;" parent="1" edge="1">
          <mxGeometry width="50" height="50" relative="1" as="geometry">
            <mxPoint x="2750" y="-920" as="sourcePoint" />
            <mxPoint x="2930" y="-920" as="targetPoint" />
          </mxGeometry>
        </mxCell>
        <mxCell id="OsrXYmDs21O4-yx2xXHt-82" value="100 ШТ" style="text;html=1;align=center;verticalAlign=middle;resizable=0;points=[];autosize=1;strokeColor=none;fillColor=none;fontSize=24;" parent="1" vertex="1">
          <mxGeometry x="2815.75" y="-960" width="110" height="40" as="geometry" />
        </mxCell>
        <mxCell id="OsrXYmDs21O4-yx2xXHt-86" value="" style="endArrow=none;dashed=1;html=1;rounded=0;strokeWidth=3;entryX=0;entryY=0.5;entryDx=0;entryDy=0;entryPerimeter=0;" parent="1" target="OsrXYmDs21O4-yx2xXHt-31" edge="1">
          <mxGeometry width="50" height="50" relative="1" as="geometry">
            <mxPoint x="-4112" y="-1883" as="sourcePoint" />
            <mxPoint x="-3870" y="-1863.83" as="targetPoint" />
          </mxGeometry>
        </mxCell>
        <mxCell id="OsrXYmDs21O4-yx2xXHt-87" value="13 ШТ" style="text;html=1;align=center;verticalAlign=middle;resizable=0;points=[];autosize=1;strokeColor=none;fillColor=none;fontSize=24;" parent="1" vertex="1">
          <mxGeometry x="-4010" y="-1943" width="90" height="40" as="geometry" />
        </mxCell>
        <mxCell id="OsrXYmDs21O4-yx2xXHt-90" value="13 ШТ" style="text;html=1;align=center;verticalAlign=middle;resizable=0;points=[];autosize=1;strokeColor=none;fillColor=none;fontSize=24;" parent="1" vertex="1">
          <mxGeometry x="-480" y="-1927" width="90" height="40" as="geometry" />
        </mxCell>
        <mxCell id="OsrXYmDs21O4-yx2xXHt-91" value="" style="endArrow=none;dashed=1;html=1;rounded=0;strokeWidth=3;entryX=-0.005;entryY=0.347;entryDx=0;entryDy=0;entryPerimeter=0;" parent="1" target="OsrXYmDs21O4-yx2xXHt-63" edge="1">
          <mxGeometry width="50" height="50" relative="1" as="geometry">
            <mxPoint x="-330" y="2058" as="sourcePoint" />
            <mxPoint x="-210" y="2059" as="targetPoint" />
          </mxGeometry>
        </mxCell>
        <mxCell id="OsrXYmDs21O4-yx2xXHt-92" value="24 ШТ" style="text;html=1;align=center;verticalAlign=middle;resizable=0;points=[];autosize=1;strokeColor=none;fillColor=none;fontSize=24;" parent="1" vertex="1">
          <mxGeometry x="-330" y="2019" width="90" height="40" as="geometry" />
        </mxCell>
        <mxCell id="OsrXYmDs21O4-yx2xXHt-105" value="" style="rounded=1;whiteSpace=wrap;html=1;strokeColor=#82b366;fillColor=#d5e8d4;fontSize=24;align=center;opacity=60;" parent="1" vertex="1">
          <mxGeometry x="1750" y="-2070" width="833" height="1780" as="geometry" />
        </mxCell>
        <mxCell id="OsrXYmDs21O4-yx2xXHt-106" value="" style="shape=mxgraph.cisco.switches.layer_3_switch;html=1;dashed=0;fillColor=#10739E;strokeColor=#ffffff;strokeWidth=2;verticalLabelPosition=bottom;verticalAlign=top;fontFamily=Helvetica;fontSize=36;fontColor=#FFB366" parent="1" vertex="1">
          <mxGeometry x="1803" y="-1500" width="200" height="200" as="geometry" />
        </mxCell>
        <mxCell id="OsrXYmDs21O4-yx2xXHt-107" value="" style="shape=mxgraph.cisco.switches.workgroup_switch;html=1;dashed=0;fillColor=#10739E;strokeColor=#ffffff;strokeWidth=2;verticalLabelPosition=bottom;verticalAlign=top;fontFamily=Helvetica;fontSize=36;fontColor=#FFB366" parent="1" vertex="1">
          <mxGeometry x="1763" y="-1180" width="270" height="140" as="geometry" />
        </mxCell>
        <mxCell id="OsrXYmDs21O4-yx2xXHt-108" value="" style="shape=mxgraph.cisco.routers.router;sketch=0;html=1;pointerEvents=1;dashed=0;fillColor=#036897;strokeColor=#ffffff;strokeWidth=2;verticalLabelPosition=bottom;verticalAlign=top;align=center;outlineConnect=0;" parent="1" vertex="1">
          <mxGeometry x="1773" y="-920" width="250" height="173" as="geometry" />
        </mxCell>
        <mxCell id="OsrXYmDs21O4-yx2xXHt-109" value="" style="shape=mxgraph.cisco.computers_and_peripherals.terminal;sketch=0;html=1;pointerEvents=1;dashed=0;fillColor=#036897;strokeColor=#ffffff;strokeWidth=2;verticalLabelPosition=bottom;verticalAlign=top;align=center;outlineConnect=0;" parent="1" vertex="1">
          <mxGeometry x="1763" y="-620" width="250" height="190" as="geometry" />
        </mxCell>
        <mxCell id="OsrXYmDs21O4-yx2xXHt-110" value="" style="shape=mxgraph.cisco.computers_and_peripherals.printer;sketch=0;html=1;pointerEvents=1;dashed=0;fillColor=#036897;strokeColor=#ffffff;strokeWidth=2;verticalLabelPosition=bottom;verticalAlign=top;align=center;outlineConnect=0;" parent="1" vertex="1">
          <mxGeometry x="1773" y="-1792" width="401" height="204" as="geometry" />
        </mxCell>
        <mxCell id="OsrXYmDs21O4-yx2xXHt-111" value="МФУ" style="text;html=1;strokeColor=none;fillColor=none;align=center;verticalAlign=middle;whiteSpace=wrap;rounded=0;fontSize=24;" parent="1" vertex="1">
          <mxGeometry x="2303" y="-1705" width="60" height="30" as="geometry" />
        </mxCell>
        <mxCell id="OsrXYmDs21O4-yx2xXHt-112" value="КОММУТАТОР УРОВНЯ ЯДРА" style="text;html=1;strokeColor=none;fillColor=none;align=center;verticalAlign=middle;whiteSpace=wrap;rounded=0;fontSize=24;" parent="1" vertex="1">
          <mxGeometry x="2093" y="-1410" width="440" height="30" as="geometry" />
        </mxCell>
        <mxCell id="OsrXYmDs21O4-yx2xXHt-113" value="КОММУТАТОР УРОВНЯ ДОСТУПА" style="text;html=1;strokeColor=none;fillColor=none;align=center;verticalAlign=middle;whiteSpace=wrap;rounded=0;fontSize=24;" parent="1" vertex="1">
          <mxGeometry x="2093" y="-1140" width="440" height="30" as="geometry" />
        </mxCell>
        <mxCell id="OsrXYmDs21O4-yx2xXHt-114" value="КОММУТАТОР УРОВНЯ РАСПРЕДЕЛЕНИЯ" style="text;html=1;strokeColor=none;fillColor=none;align=center;verticalAlign=middle;whiteSpace=wrap;rounded=0;fontSize=24;" parent="1" vertex="1">
          <mxGeometry x="2063" y="-848.5" width="500" height="30" as="geometry" />
        </mxCell>
        <mxCell id="OsrXYmDs21O4-yx2xXHt-115" value="АРМ" style="text;html=1;strokeColor=none;fillColor=none;align=center;verticalAlign=middle;whiteSpace=wrap;rounded=0;fontSize=24;" parent="1" vertex="1">
          <mxGeometry x="2283" y="-550" width="60" height="30" as="geometry" />
        </mxCell>
        <mxCell id="OsrXYmDs21O4-yx2xXHt-116" value="ФИЗИЧЕСКИЕ УСТРОЙСТВА" style="text;html=1;strokeColor=none;fillColor=none;align=center;verticalAlign=middle;whiteSpace=wrap;rounded=0;fontSize=24;" parent="1" vertex="1">
          <mxGeometry x="1943.25" y="-2000" width="446.5" height="30" as="geometry" />
        </mxCell>
        <mxCell id="OsrXYmDs21O4-yx2xXHt-117" value="" style="rounded=1;whiteSpace=wrap;html=1;strokeColor=#9673a6;fillColor=#e1d5e7;fontSize=24;align=center;opacity=60;" parent="1" vertex="1">
          <mxGeometry x="2674" y="-2070" width="730" height="790" as="geometry" />
        </mxCell>
        <mxCell id="OsrXYmDs21O4-yx2xXHt-118" value="ТИПЫ ИСПОЛЬЗУЕМЫХ КАБЕЛЕЙ" style="text;html=1;strokeColor=none;fillColor=none;align=center;verticalAlign=middle;whiteSpace=wrap;rounded=0;fontSize=24;" parent="1" vertex="1">
          <mxGeometry x="2815.75" y="-2000" width="446.5" height="30" as="geometry" />
        </mxCell>
        <mxCell id="OsrXYmDs21O4-yx2xXHt-120" value="" style="endArrow=classic;startArrow=classic;html=1;rounded=0;strokeWidth=3;" parent="1" edge="1">
          <mxGeometry width="50" height="50" relative="1" as="geometry">
            <mxPoint x="2763" y="-1810" as="sourcePoint" />
            <mxPoint x="2963" y="-1810" as="targetPoint" />
          </mxGeometry>
        </mxCell>
        <mxCell id="OsrXYmDs21O4-yx2xXHt-122" value="" style="endArrow=classic;startArrow=classic;html=1;rounded=0;strokeWidth=3;strokeColor=#00CC00;" parent="1" edge="1">
          <mxGeometry width="50" height="50" relative="1" as="geometry">
            <mxPoint x="2763" y="-1410" as="sourcePoint" />
            <mxPoint x="2963" y="-1410" as="targetPoint" />
          </mxGeometry>
        </mxCell>
        <mxCell id="OsrXYmDs21O4-yx2xXHt-123" value="" style="endArrow=classic;startArrow=classic;html=1;rounded=0;strokeWidth=3;strokeColor=#FF0000;" parent="1" edge="1">
          <mxGeometry width="50" height="50" relative="1" as="geometry">
            <mxPoint x="2763" y="-1610" as="sourcePoint" />
            <mxPoint x="2963" y="-1610" as="targetPoint" />
          </mxGeometry>
        </mxCell>
        <mxCell id="OsrXYmDs21O4-yx2xXHt-124" value="ПОДКЛЮЧЕНИЕ СКОРОСТЬЮ 1000 BASE-T" style="text;html=1;strokeColor=none;fillColor=none;align=center;verticalAlign=middle;whiteSpace=wrap;rounded=0;fontSize=24;" parent="1" vertex="1">
          <mxGeometry x="2983" y="-1430" width="400" height="30" as="geometry" />
        </mxCell>
        <mxCell id="OsrXYmDs21O4-yx2xXHt-125" value="ОПТИЧЕСКОЕ ПОДКЛЮЧЕНИЕ СКОРОСТЬЮ 40GE" style="text;html=1;strokeColor=none;fillColor=none;align=center;verticalAlign=middle;whiteSpace=wrap;rounded=0;fontSize=24;" parent="1" vertex="1">
          <mxGeometry x="2983" y="-1630" width="400" height="30" as="geometry" />
        </mxCell>
        <mxCell id="OsrXYmDs21O4-yx2xXHt-126" value="ОПТИЧЕСКОЕ ПОДКЛЮЧЕНИЕ СКОРОСТЬЮ 10GE" style="text;html=1;strokeColor=none;fillColor=none;align=center;verticalAlign=middle;whiteSpace=wrap;rounded=0;fontSize=24;" parent="1" vertex="1">
          <mxGeometry x="2983" y="-1830" width="400" height="30" as="geometry" />
        </mxCell>
        <mxCell id="OsrXYmDs21O4-yx2xXHt-128" value="ТИПЫ СТРЕЛОК" style="text;html=1;strokeColor=none;fillColor=none;align=center;verticalAlign=middle;whiteSpace=wrap;rounded=0;fontSize=24;" parent="1" vertex="1">
          <mxGeometry x="2800" y="-1070" width="446.5" height="30" as="geometry" />
        </mxCell>
        <mxCell id="OsrXYmDs21O4-yx2xXHt-129" value="ОБОЗНАЧЕНИЕ КОЛ-ВА УСТРОЙСТВ" style="text;html=1;strokeColor=none;fillColor=none;align=center;verticalAlign=middle;whiteSpace=wrap;rounded=0;fontSize=24;" parent="1" vertex="1">
          <mxGeometry x="2936.5" y="-950" width="446.5" height="30" as="geometry" />
        </mxCell>
        <mxCell id="OsrXYmDs21O4-yx2xXHt-131" value="" style="shape=flexArrow;endArrow=classic;startArrow=classic;html=1;rounded=0;exitX=0.75;exitY=0;exitDx=0;exitDy=0;strokeWidth=1;" parent="1" edge="1">
          <mxGeometry width="100" height="100" relative="1" as="geometry">
            <mxPoint x="2716.5" y="-810" as="sourcePoint" />
            <mxPoint x="2936.5" y="-809" as="targetPoint" />
          </mxGeometry>
        </mxCell>
        <mxCell id="OsrXYmDs21O4-yx2xXHt-132" value="475 М" style="edgeLabel;html=1;align=center;verticalAlign=middle;resizable=0;points=[];fontSize=24;" parent="OsrXYmDs21O4-yx2xXHt-131" vertex="1" connectable="0">
          <mxGeometry x="0.0577" y="-2" relative="1" as="geometry">
            <mxPoint as="offset" />
          </mxGeometry>
        </mxCell>
        <mxCell id="OsrXYmDs21O4-yx2xXHt-133" value="ОБОЗНАЧЕНИЕ РАССТ. МЕЖДУ ЗДАНИЯМИ" style="text;html=1;strokeColor=none;fillColor=none;align=center;verticalAlign=middle;whiteSpace=wrap;rounded=0;fontSize=24;" parent="1" vertex="1">
          <mxGeometry x="2936.5" y="-818.5" width="446.5" height="30" as="geometry" />
        </mxCell>
        <mxCell id="SFgPAnBROxGkWkuP0WC9-17" value="" style="rounded=1;whiteSpace=wrap;html=1;strokeColor=none;fillColor=#BAC8D3;fontSize=24;fontColor=#23445D;align=center;opacity=60;" parent="1" vertex="1">
          <mxGeometry x="-320" y="-2110" width="1570" height="790" as="geometry" />
        </mxCell>
        <mxCell id="SFgPAnBROxGkWkuP0WC9-20" value="" style="shape=mxgraph.cisco.switches.workgroup_switch;html=1;dashed=0;fillColor=#10739E;strokeColor=#ffffff;strokeWidth=2;verticalLabelPosition=bottom;verticalAlign=top;fontFamily=Helvetica;fontSize=36;fontColor=#FFB366" parent="1" vertex="1">
          <mxGeometry x="480" y="-1943" width="270" height="140" as="geometry" />
        </mxCell>
        <mxCell id="SFgPAnBROxGkWkuP0WC9-21" value="" style="shape=mxgraph.cisco.computers_and_peripherals.printer;sketch=0;html=1;pointerEvents=1;dashed=0;fillColor=#036897;strokeColor=#ffffff;strokeWidth=2;verticalLabelPosition=bottom;verticalAlign=top;align=center;outlineConnect=0;" parent="1" vertex="1">
          <mxGeometry x="-181" y="-1975" width="401" height="204" as="geometry" />
        </mxCell>
        <mxCell id="SFgPAnBROxGkWkuP0WC9-22" value="" style="shape=mxgraph.cisco.computers_and_peripherals.terminal;sketch=0;html=1;pointerEvents=1;dashed=0;fillColor=#036897;strokeColor=#ffffff;strokeWidth=2;verticalLabelPosition=bottom;verticalAlign=top;align=center;outlineConnect=0;" parent="1" vertex="1">
          <mxGeometry x="967" y="-1971" width="250" height="190" as="geometry" />
        </mxCell>
        <mxCell id="SFgPAnBROxGkWkuP0WC9-25" value="" style="endArrow=classic;startArrow=classic;html=1;rounded=0;entryX=0.15;entryY=0.5;entryDx=0;entryDy=0;entryPerimeter=0;exitX=0.98;exitY=0.5;exitDx=0;exitDy=0;exitPerimeter=0;strokeWidth=3;strokeColor=#00CC00;" parent="1" source="SFgPAnBROxGkWkuP0WC9-20" target="SFgPAnBROxGkWkuP0WC9-22" edge="1">
          <mxGeometry width="50" height="50" relative="1" as="geometry">
            <mxPoint x="800" y="-2170" as="sourcePoint" />
            <mxPoint x="850" y="-2220" as="targetPoint" />
          </mxGeometry>
        </mxCell>
        <mxCell id="SFgPAnBROxGkWkuP0WC9-26" value="" style="endArrow=classic;startArrow=classic;html=1;rounded=0;entryX=0;entryY=0.5;entryDx=0;entryDy=0;entryPerimeter=0;exitX=0.8;exitY=0.5;exitDx=0;exitDy=0;exitPerimeter=0;strokeColor=#00CC00;strokeWidth=3;" parent="1" source="SFgPAnBROxGkWkuP0WC9-21" target="SFgPAnBROxGkWkuP0WC9-20" edge="1">
          <mxGeometry width="50" height="50" relative="1" as="geometry">
            <mxPoint x="280" y="-2190" as="sourcePoint" />
            <mxPoint x="330" y="-2240" as="targetPoint" />
          </mxGeometry>
        </mxCell>
        <mxCell id="SFgPAnBROxGkWkuP0WC9-27" value="" style="endArrow=none;dashed=1;html=1;rounded=0;strokeWidth=3;exitX=1;exitY=0.5;exitDx=0;exitDy=0;exitPerimeter=0;entryX=0.278;entryY=-0.2;entryDx=0;entryDy=0;entryPerimeter=0;" parent="1" source="SFgPAnBROxGkWkuP0WC9-22" target="OsrXYmDs21O4-yx2xXHt-76" edge="1">
          <mxGeometry width="50" height="50" relative="1" as="geometry">
            <mxPoint x="1400" y="-1870" as="sourcePoint" />
            <mxPoint x="1490" y="-1875" as="targetPoint" />
          </mxGeometry>
        </mxCell>
        <mxCell id="SFgPAnBROxGkWkuP0WC9-28" value="134 ШТ" style="text;html=1;align=center;verticalAlign=middle;resizable=0;points=[];autosize=1;strokeColor=none;fillColor=none;fontSize=24;" parent="1" vertex="1">
          <mxGeometry x="-3470" y="-1010" width="110" height="40" as="geometry" />
        </mxCell>
        <mxCell id="SFgPAnBROxGkWkuP0WC9-29" value="" style="endArrow=none;dashed=1;html=1;rounded=0;strokeWidth=3;entryX=0;entryY=0.5;entryDx=0;entryDy=0;entryPerimeter=0;" parent="1" target="SFgPAnBROxGkWkuP0WC9-21" edge="1">
          <mxGeometry width="50" height="50" relative="1" as="geometry">
            <mxPoint x="-440" y="-1873" as="sourcePoint" />
            <mxPoint x="-288" y="-1853.83" as="targetPoint" />
          </mxGeometry>
        </mxCell>
        <mxCell id="SFgPAnBROxGkWkuP0WC9-33" value="" style="rounded=1;whiteSpace=wrap;html=1;strokeColor=none;fillColor=#BAC8D3;fontSize=24;fontColor=#23445D;align=center;opacity=60;direction=south;" parent="1" vertex="1">
          <mxGeometry x="-2060" y="2600" width="1690" height="1570" as="geometry" />
        </mxCell>
        <mxCell id="SFgPAnBROxGkWkuP0WC9-35" value="" style="shape=mxgraph.cisco.servers.standard_host;sketch=0;html=1;pointerEvents=1;dashed=0;fillColor=#036897;strokeColor=#ffffff;strokeWidth=2;verticalLabelPosition=bottom;verticalAlign=top;align=center;outlineConnect=0;" parent="1" vertex="1">
          <mxGeometry x="-1425" y="2990" width="220" height="262" as="geometry" />
        </mxCell>
        <mxCell id="SFgPAnBROxGkWkuP0WC9-36" value="" style="shape=mxgraph.cisco.switches.workgroup_switch;html=1;dashed=0;fillColor=#10739E;strokeColor=#ffffff;strokeWidth=2;verticalLabelPosition=bottom;verticalAlign=top;fontFamily=Helvetica;fontSize=36;fontColor=#FFB366" parent="1" vertex="1">
          <mxGeometry x="-1390" y="3610" width="270" height="140" as="geometry" />
        </mxCell>
        <mxCell id="SFgPAnBROxGkWkuP0WC9-37" value="" style="shape=mxgraph.cisco.computers_and_peripherals.printer;sketch=0;html=1;pointerEvents=1;dashed=0;fillColor=#036897;strokeColor=#ffffff;strokeWidth=2;verticalLabelPosition=bottom;verticalAlign=top;align=center;outlineConnect=0;" parent="1" vertex="1">
          <mxGeometry x="-1780" y="3820" width="401" height="204" as="geometry" />
        </mxCell>
        <mxCell id="SFgPAnBROxGkWkuP0WC9-38" value="" style="shape=mxgraph.cisco.computers_and_peripherals.terminal;sketch=0;html=1;pointerEvents=1;dashed=0;fillColor=#036897;strokeColor=#ffffff;strokeWidth=2;verticalLabelPosition=bottom;verticalAlign=top;align=center;outlineConnect=0;" parent="1" vertex="1">
          <mxGeometry x="-1087" y="3827" width="250" height="190" as="geometry" />
        </mxCell>
        <mxCell id="SFgPAnBROxGkWkuP0WC9-40" value="" style="endArrow=classic;startArrow=classic;html=1;rounded=0;strokeColor=#FF0000;strokeWidth=3;exitX=0.5;exitY=1;exitDx=0;exitDy=0;exitPerimeter=0;entryX=0.5;entryY=0;entryDx=0;entryDy=0;entryPerimeter=0;" parent="1" source="p_6jnlqLKZG0uucsSTN9-2" target="SFgPAnBROxGkWkuP0WC9-35" edge="1">
          <mxGeometry width="50" height="50" relative="1" as="geometry">
            <mxPoint x="760" y="4147" as="sourcePoint" />
            <mxPoint x="-2210" y="3280" as="targetPoint" />
          </mxGeometry>
        </mxCell>
        <mxCell id="SFgPAnBROxGkWkuP0WC9-41" value="" style="endArrow=classic;startArrow=classic;html=1;rounded=0;strokeWidth=3;strokeColor=#00CC00;entryX=0.87;entryY=0.74;entryDx=0;entryDy=0;entryPerimeter=0;exitX=0.609;exitY=-0.001;exitDx=0;exitDy=0;exitPerimeter=0;" parent="1" source="SFgPAnBROxGkWkuP0WC9-38" target="SFgPAnBROxGkWkuP0WC9-36" edge="1">
          <mxGeometry width="50" height="50" relative="1" as="geometry">
            <mxPoint x="-990" y="2920" as="sourcePoint" />
            <mxPoint x="-2400" y="4020" as="targetPoint" />
          </mxGeometry>
        </mxCell>
        <mxCell id="SFgPAnBROxGkWkuP0WC9-42" value="" style="endArrow=classic;startArrow=classic;html=1;rounded=0;strokeColor=#00CC00;strokeWidth=3;exitX=0.39;exitY=0.002;exitDx=0;exitDy=0;exitPerimeter=0;" parent="1" source="SFgPAnBROxGkWkuP0WC9-37" target="SFgPAnBROxGkWkuP0WC9-36" edge="1">
          <mxGeometry width="50" height="50" relative="1" as="geometry">
            <mxPoint x="-1470" y="4300" as="sourcePoint" />
            <mxPoint x="-1460" y="2850" as="targetPoint" />
          </mxGeometry>
        </mxCell>
        <mxCell id="SFgPAnBROxGkWkuP0WC9-43" value="" style="endArrow=none;dashed=1;html=1;rounded=0;strokeWidth=3;exitX=1;exitY=0.5;exitDx=0;exitDy=0;exitPerimeter=0;" parent="1" source="SFgPAnBROxGkWkuP0WC9-38" edge="1">
          <mxGeometry width="50" height="50" relative="1" as="geometry">
            <mxPoint x="-1460" y="2500" as="sourcePoint" />
            <mxPoint x="-260" y="3920" as="targetPoint" />
            <Array as="points" />
          </mxGeometry>
        </mxCell>
        <mxCell id="SFgPAnBROxGkWkuP0WC9-44" value="29 ШТ" style="text;html=1;align=center;verticalAlign=middle;resizable=0;points=[];autosize=1;strokeColor=none;fillColor=none;fontSize=24;" parent="1" vertex="1">
          <mxGeometry x="-320" y="3860" width="90" height="40" as="geometry" />
        </mxCell>
        <mxCell id="SFgPAnBROxGkWkuP0WC9-45" value="" style="endArrow=none;dashed=1;html=1;rounded=0;strokeWidth=3;exitX=0;exitY=0.5;exitDx=0;exitDy=0;exitPerimeter=0;" parent="1" source="SFgPAnBROxGkWkuP0WC9-37" edge="1">
          <mxGeometry width="50" height="50" relative="1" as="geometry">
            <mxPoint x="-1515" y="3984" as="sourcePoint" />
            <mxPoint x="-2160" y="3922" as="targetPoint" />
          </mxGeometry>
        </mxCell>
        <mxCell id="SFgPAnBROxGkWkuP0WC9-46" value="5 ШТ" style="text;html=1;align=center;verticalAlign=middle;resizable=0;points=[];autosize=1;strokeColor=none;fillColor=none;fontSize=24;" parent="1" vertex="1">
          <mxGeometry x="-2200" y="3870" width="80" height="40" as="geometry" />
        </mxCell>
        <mxCell id="SFgPAnBROxGkWkuP0WC9-65" value="" style="shape=mxgraph.cisco.switches.workgroup_switch;html=1;dashed=0;fillColor=#10739E;strokeColor=#ffffff;strokeWidth=2;verticalLabelPosition=bottom;verticalAlign=top;fontFamily=Helvetica;fontSize=36;fontColor=#FFB366" parent="1" vertex="1">
          <mxGeometry x="620" y="-350" width="270" height="140" as="geometry" />
        </mxCell>
        <mxCell id="SFgPAnBROxGkWkuP0WC9-66" value="" style="shape=mxgraph.cisco.computers_and_peripherals.printer;sketch=0;html=1;pointerEvents=1;dashed=0;fillColor=#036897;strokeColor=#ffffff;strokeWidth=2;verticalLabelPosition=bottom;verticalAlign=top;align=center;outlineConnect=0;" parent="1" vertex="1">
          <mxGeometry x="605.5" y="136" width="401" height="204" as="geometry" />
        </mxCell>
        <mxCell id="SFgPAnBROxGkWkuP0WC9-67" value="" style="shape=mxgraph.cisco.computers_and_peripherals.terminal;sketch=0;html=1;pointerEvents=1;dashed=0;fillColor=#036897;strokeColor=#ffffff;strokeWidth=2;verticalLabelPosition=bottom;verticalAlign=top;align=center;outlineConnect=0;" parent="1" vertex="1">
          <mxGeometry x="630" y="-758.5" width="250" height="190" as="geometry" />
        </mxCell>
        <mxCell id="SFgPAnBROxGkWkuP0WC9-70" value="" style="endArrow=classic;startArrow=classic;html=1;rounded=0;entryX=0.5;entryY=1;entryDx=0;entryDy=0;entryPerimeter=0;exitX=0.5;exitY=0;exitDx=0;exitDy=0;exitPerimeter=0;strokeWidth=3;strokeColor=#00CC00;" parent="1" source="SFgPAnBROxGkWkuP0WC9-65" target="SFgPAnBROxGkWkuP0WC9-67" edge="1">
          <mxGeometry width="50" height="50" relative="1" as="geometry">
            <mxPoint x="1245.5" y="-640" as="sourcePoint" />
            <mxPoint x="1295.5" y="-690" as="targetPoint" />
          </mxGeometry>
        </mxCell>
        <mxCell id="SFgPAnBROxGkWkuP0WC9-71" value="" style="endArrow=classic;startArrow=classic;html=1;rounded=0;entryX=0.5;entryY=0.98;entryDx=0;entryDy=0;entryPerimeter=0;strokeColor=#00CC00;strokeWidth=3;exitX=0.373;exitY=0.069;exitDx=0;exitDy=0;exitPerimeter=0;" parent="1" source="SFgPAnBROxGkWkuP0WC9-66" target="SFgPAnBROxGkWkuP0WC9-65" edge="1">
          <mxGeometry width="50" height="50" relative="1" as="geometry">
            <mxPoint x="725.5" y="-660" as="sourcePoint" />
            <mxPoint x="775.5" y="-710" as="targetPoint" />
          </mxGeometry>
        </mxCell>
        <mxCell id="SFgPAnBROxGkWkuP0WC9-72" value="65 ШТ" style="text;html=1;align=center;verticalAlign=middle;resizable=0;points=[];autosize=1;strokeColor=none;fillColor=none;fontSize=24;" parent="1" vertex="1">
          <mxGeometry x="827" y="650" width="90" height="40" as="geometry" />
        </mxCell>
        <mxCell id="SFgPAnBROxGkWkuP0WC9-76" value="" style="endArrow=none;dashed=1;html=1;rounded=0;strokeWidth=3;" parent="1" target="SFgPAnBROxGkWkuP0WC9-67" edge="1">
          <mxGeometry width="50" height="50" relative="1" as="geometry">
            <mxPoint x="755" y="-1100" as="sourcePoint" />
            <mxPoint x="765.5" y="-800" as="targetPoint" />
          </mxGeometry>
        </mxCell>
        <mxCell id="SFgPAnBROxGkWkuP0WC9-78" value="450 ШТ" style="text;html=1;align=center;verticalAlign=middle;resizable=0;points=[];autosize=1;strokeColor=none;fillColor=none;fontSize=24;" parent="1" vertex="1">
          <mxGeometry x="780" y="-1090" width="110" height="40" as="geometry" />
        </mxCell>
        <mxCell id="SFgPAnBROxGkWkuP0WC9-79" value="" style="endArrow=none;dashed=1;html=1;rounded=0;strokeWidth=3;" parent="1" source="SFgPAnBROxGkWkuP0WC9-66" edge="1">
          <mxGeometry width="50" height="50" relative="1" as="geometry">
            <mxPoint x="697.5" y="480" as="sourcePoint" />
            <mxPoint x="810" y="680" as="targetPoint" />
          </mxGeometry>
        </mxCell>
        <mxCell id="p_6jnlqLKZG0uucsSTN9-2" value="" style="shape=mxgraph.cisco.switches.layer_3_switch;sketch=0;html=1;pointerEvents=1;dashed=0;fillColor=#036897;strokeColor=#ffffff;strokeWidth=2;verticalLabelPosition=bottom;verticalAlign=top;align=center;outlineConnect=0;" parent="1" vertex="1">
          <mxGeometry x="-1440" y="2691.5" width="250" height="250" as="geometry" />
        </mxCell>
        <mxCell id="cqeDnVSKHZriVz7Xim8s-5" value="" style="endArrow=classic;startArrow=classic;html=1;rounded=0;strokeColor=#151414;strokeWidth=3;entryX=0.88;entryY=0.1;entryDx=0;entryDy=0;entryPerimeter=0;exitX=0.5;exitY=0.98;exitDx=0;exitDy=0;exitPerimeter=0;" parent="1" source="SFgPAnBROxGkWkuP0WC9-20" target="OsrXYmDs21O4-yx2xXHt-60" edge="1">
          <mxGeometry width="50" height="50" relative="1" as="geometry">
            <mxPoint x="-350" y="-1230" as="sourcePoint" />
            <mxPoint x="-1390" y="-133" as="targetPoint" />
            <Array as="points" />
          </mxGeometry>
        </mxCell>
        <mxCell id="cqeDnVSKHZriVz7Xim8s-7" value="" style="endArrow=none;dashed=1;html=1;rounded=0;strokeWidth=3;exitX=0;exitY=0.5;exitDx=0;exitDy=0;exitPerimeter=0;" parent="1" source="SFgPAnBROxGkWkuP0WC9-35" edge="1">
          <mxGeometry width="50" height="50" relative="1" as="geometry">
            <mxPoint x="-652" y="-1007.5" as="sourcePoint" />
            <mxPoint x="-2300" y="3121" as="targetPoint" />
          </mxGeometry>
        </mxCell>
        <mxCell id="cqeDnVSKHZriVz7Xim8s-8" value="40 шт" style="text;html=1;align=center;verticalAlign=middle;resizable=0;points=[];autosize=1;strokeColor=none;fillColor=none;fontSize=24;" parent="1" vertex="1">
          <mxGeometry x="-2350" y="3060" width="90" height="40" as="geometry" />
        </mxCell>
        <mxCell id="E-VrUaR5h1mBOyn1e6ao-5" value="" style="shape=mxgraph.cisco.servers.standard_host;sketch=0;html=1;pointerEvents=1;dashed=0;fillColor=#036897;strokeColor=#ffffff;strokeWidth=2;verticalLabelPosition=bottom;verticalAlign=top;align=center;outlineConnect=0;" parent="1" vertex="1">
          <mxGeometry x="-2970" y="-758.5" width="220" height="262" as="geometry" />
        </mxCell>
        <mxCell id="E-VrUaR5h1mBOyn1e6ao-6" value="" style="endArrow=none;dashed=1;html=1;rounded=0;strokeWidth=3;exitX=0.5;exitY=0;exitDx=0;exitDy=0;exitPerimeter=0;" parent="1" source="E-VrUaR5h1mBOyn1e6ao-5" edge="1">
          <mxGeometry width="50" height="50" relative="1" as="geometry">
            <mxPoint x="-5060" y="-672" as="sourcePoint" />
            <mxPoint x="-2860" y="-990" as="targetPoint" />
          </mxGeometry>
        </mxCell>
        <mxCell id="E-VrUaR5h1mBOyn1e6ao-7" value="10 шт" style="text;html=1;align=center;verticalAlign=middle;resizable=0;points=[];autosize=1;strokeColor=none;fillColor=none;fontSize=24;" parent="1" vertex="1">
          <mxGeometry x="-2860" y="-1000" width="90" height="40" as="geometry" />
        </mxCell>
        <mxCell id="E-VrUaR5h1mBOyn1e6ao-21" value="&lt;font style=&quot;font-size: 48px;&quot;&gt;Здание №3&lt;/font&gt;" style="text;html=1;align=center;verticalAlign=middle;whiteSpace=wrap;rounded=0;" parent="1" vertex="1">
          <mxGeometry x="230" y="-1725" width="450" height="70" as="geometry" />
        </mxCell>
        <mxCell id="E-VrUaR5h1mBOyn1e6ao-31" value="" style="endArrow=classic;startArrow=classic;html=1;rounded=0;strokeWidth=3;entryX=0.88;entryY=0.9;entryDx=0;entryDy=0;entryPerimeter=0;exitX=0.759;exitY=0.045;exitDx=0;exitDy=0;exitPerimeter=0;" parent="1" source="OsrXYmDs21O4-yx2xXHt-62" target="OsrXYmDs21O4-yx2xXHt-60" edge="1">
          <mxGeometry width="50" height="50" relative="1" as="geometry">
            <mxPoint x="988" y="1209" as="sourcePoint" />
            <mxPoint x="633" y="1030" as="targetPoint" />
          </mxGeometry>
        </mxCell>
        <mxCell id="E-VrUaR5h1mBOyn1e6ao-33" value="" style="endArrow=none;dashed=1;html=1;rounded=0;strokeWidth=3;exitX=0.5;exitY=0;exitDx=0;exitDy=0;exitPerimeter=0;" parent="1" source="p_6jnlqLKZG0uucsSTN9-2" edge="1">
          <mxGeometry width="50" height="50" relative="1" as="geometry">
            <mxPoint x="-1471" y="3077.5" as="sourcePoint" />
            <mxPoint x="-1315" y="2550" as="targetPoint" />
          </mxGeometry>
        </mxCell>
        <mxCell id="E-VrUaR5h1mBOyn1e6ao-34" value="2 ШТ" style="text;html=1;align=center;verticalAlign=middle;resizable=0;points=[];autosize=1;strokeColor=none;fillColor=none;fontSize=24;" parent="1" vertex="1">
          <mxGeometry x="-1310" y="2540" width="80" height="40" as="geometry" />
        </mxCell>
        <mxCell id="E-VrUaR5h1mBOyn1e6ao-35" value="" style="endArrow=classic;startArrow=classic;html=1;rounded=0;strokeColor=#FF0000;strokeWidth=3;entryX=1;entryY=0.5;entryDx=0;entryDy=0;entryPerimeter=0;" parent="1" source="p_6jnlqLKZG0uucsSTN9-2" target="E-VrUaR5h1mBOyn1e6ao-5" edge="1">
          <mxGeometry width="50" height="50" relative="1" as="geometry">
            <mxPoint x="-2330" y="-224.25" as="sourcePoint" />
            <mxPoint x="-2330" y="-825.75" as="targetPoint" />
          </mxGeometry>
        </mxCell>
        <mxCell id="E-VrUaR5h1mBOyn1e6ao-36" value="" style="shape=mxgraph.cisco.routers.router;sketch=0;html=1;pointerEvents=1;dashed=0;fillColor=#036897;strokeColor=#ffffff;strokeWidth=2;verticalLabelPosition=bottom;verticalAlign=top;align=center;outlineConnect=0;" parent="1" vertex="1">
          <mxGeometry x="-3090" y="-173" width="220" height="173" as="geometry" />
        </mxCell>
        <mxCell id="E-VrUaR5h1mBOyn1e6ao-37" value="" style="endArrow=classic;startArrow=classic;html=1;rounded=0;strokeWidth=3;entryX=0.5;entryY=1;entryDx=0;entryDy=0;entryPerimeter=0;exitX=0.98;exitY=0.5;exitDx=0;exitDy=0;exitPerimeter=0;" parent="1" source="SFgPAnBROxGkWkuP0WC9-36" target="OsrXYmDs21O4-yx2xXHt-60" edge="1">
          <mxGeometry width="50" height="50" relative="1" as="geometry">
            <mxPoint x="193" y="1575" as="sourcePoint" />
            <mxPoint x="-138" y="-584" as="targetPoint" />
          </mxGeometry>
        </mxCell>
        <mxCell id="E-VrUaR5h1mBOyn1e6ao-39" value="" style="endArrow=classic;startArrow=classic;html=1;rounded=0;strokeWidth=3;entryX=0.5;entryY=1;entryDx=0;entryDy=0;entryPerimeter=0;exitX=0.5;exitY=0;exitDx=0;exitDy=0;exitPerimeter=0;" parent="1" source="OsrXYmDs21O4-yx2xXHt-52" target="E-VrUaR5h1mBOyn1e6ao-36" edge="1">
          <mxGeometry width="50" height="50" relative="1" as="geometry">
            <mxPoint x="-2049" y="1749.5" as="sourcePoint" />
            <mxPoint x="-2380" y="-409.5" as="targetPoint" />
          </mxGeometry>
        </mxCell>
        <mxCell id="E-VrUaR5h1mBOyn1e6ao-40" value="" style="endArrow=classic;startArrow=classic;html=1;rounded=0;strokeWidth=3;entryX=0.5;entryY=0.98;entryDx=0;entryDy=0;entryPerimeter=0;exitX=0.12;exitY=0.1;exitDx=0;exitDy=0;exitPerimeter=0;" parent="1" source="E-VrUaR5h1mBOyn1e6ao-36" target="OsrXYmDs21O4-yx2xXHt-30" edge="1">
          <mxGeometry width="50" height="50" relative="1" as="geometry">
            <mxPoint x="-2529" y="359" as="sourcePoint" />
            <mxPoint x="-2860" y="-1800" as="targetPoint" />
          </mxGeometry>
        </mxCell>
        <mxCell id="E-VrUaR5h1mBOyn1e6ao-41" value="" style="endArrow=classic;startArrow=classic;html=1;rounded=0;strokeWidth=3;exitX=0;exitY=0.5;exitDx=0;exitDy=0;exitPerimeter=0;" parent="1" source="SFgPAnBROxGkWkuP0WC9-36" target="E-VrUaR5h1mBOyn1e6ao-36" edge="1">
          <mxGeometry width="50" height="50" relative="1" as="geometry">
            <mxPoint x="-2099" y="1059" as="sourcePoint" />
            <mxPoint x="-2430" y="-1100" as="targetPoint" />
          </mxGeometry>
        </mxCell>
        <mxCell id="E-VrUaR5h1mBOyn1e6ao-42" value="" style="endArrow=classic;startArrow=classic;html=1;rounded=0;strokeWidth=3;exitX=0.16;exitY=0.23;exitDx=0;exitDy=0;exitPerimeter=0;" parent="1" source="OsrXYmDs21O4-yx2xXHt-62" target="E-VrUaR5h1mBOyn1e6ao-36" edge="1">
          <mxGeometry width="50" height="50" relative="1" as="geometry">
            <mxPoint x="-1879" y="2310" as="sourcePoint" />
            <mxPoint x="-2590" y="160" as="targetPoint" />
          </mxGeometry>
        </mxCell>
        <mxCell id="E-VrUaR5h1mBOyn1e6ao-43" value="" style="endArrow=classic;startArrow=classic;html=1;rounded=0;strokeWidth=3;exitX=1;exitY=0;exitDx=0;exitDy=0;exitPerimeter=0;" parent="1" source="OsrXYmDs21O4-yx2xXHt-52" target="OsrXYmDs21O4-yx2xXHt-60" edge="1">
          <mxGeometry width="50" height="50" relative="1" as="geometry">
            <mxPoint x="281" y="2075.5" as="sourcePoint" />
            <mxPoint x="-70" y="230" as="targetPoint" />
          </mxGeometry>
        </mxCell>
        <mxCell id="E-VrUaR5h1mBOyn1e6ao-44" value="" style="endArrow=classic;startArrow=classic;html=1;rounded=0;strokeWidth=3;entryX=0;entryY=0.98;entryDx=0;entryDy=0;entryPerimeter=0;exitX=0.5;exitY=0;exitDx=0;exitDy=0;exitPerimeter=0;" parent="1" source="E-VrUaR5h1mBOyn1e6ao-36" target="SFgPAnBROxGkWkuP0WC9-20" edge="1">
          <mxGeometry width="50" height="50" relative="1" as="geometry">
            <mxPoint x="-639" y="-61" as="sourcePoint" />
            <mxPoint x="-970" y="-2220" as="targetPoint" />
          </mxGeometry>
        </mxCell>
        <mxCell id="E-VrUaR5h1mBOyn1e6ao-45" value="" style="endArrow=classic;startArrow=classic;html=1;rounded=0;strokeWidth=3;entryX=0.87;entryY=0.74;entryDx=0;entryDy=0;entryPerimeter=0;exitX=0.5;exitY=0;exitDx=0;exitDy=0;exitPerimeter=0;" parent="1" source="OsrXYmDs21O4-yx2xXHt-60" target="OsrXYmDs21O4-yx2xXHt-30" edge="1">
          <mxGeometry width="50" height="50" relative="1" as="geometry">
            <mxPoint x="-779" y="-161" as="sourcePoint" />
            <mxPoint x="-1110" y="-2320" as="targetPoint" />
          </mxGeometry>
        </mxCell>
        <mxCell id="E-VrUaR5h1mBOyn1e6ao-46" value="" style="endArrow=classic;startArrow=classic;html=1;rounded=0;strokeColor=#FF0000;strokeWidth=3;exitX=0.045;exitY=0.289;exitDx=0;exitDy=0;exitPerimeter=0;" parent="1" source="OsrXYmDs21O4-yx2xXHt-60" target="E-VrUaR5h1mBOyn1e6ao-36" edge="1">
          <mxGeometry width="50" height="50" relative="1" as="geometry">
            <mxPoint x="20" y="-66.66999999999996" as="sourcePoint" />
            <mxPoint x="-1300" y="-66.66999999999996" as="targetPoint" />
          </mxGeometry>
        </mxCell>
        <mxCell id="E-VrUaR5h1mBOyn1e6ao-47" value="" style="endArrow=classic;startArrow=classic;html=1;rounded=0;strokeColor=#FF0000;strokeWidth=3;entryX=0.88;entryY=0.9;entryDx=0;entryDy=0;entryPerimeter=0;exitX=0.08;exitY=0.05;exitDx=0;exitDy=0;exitPerimeter=0;" parent="1" source="p_6jnlqLKZG0uucsSTN9-2" target="E-VrUaR5h1mBOyn1e6ao-36" edge="1">
          <mxGeometry width="50" height="50" relative="1" as="geometry">
            <mxPoint x="-1870" y="1770" as="sourcePoint" />
            <mxPoint x="-2800" y="-148" as="targetPoint" />
          </mxGeometry>
        </mxCell>
        <mxCell id="E-VrUaR5h1mBOyn1e6ao-48" value="" style="endArrow=classic;startArrow=classic;html=1;rounded=0;strokeColor=#FF0000;strokeWidth=3;exitX=0.12;exitY=0.9;exitDx=0;exitDy=0;exitPerimeter=0;entryX=1;entryY=0;entryDx=0;entryDy=0;entryPerimeter=0;" parent="1" source="OsrXYmDs21O4-yx2xXHt-60" edge="1" target="p_6jnlqLKZG0uucsSTN9-2">
          <mxGeometry width="50" height="50" relative="1" as="geometry">
            <mxPoint x="185" y="-584" as="sourcePoint" />
            <mxPoint x="-1190" y="-590" as="targetPoint" />
          </mxGeometry>
        </mxCell>
        <mxCell id="E-VrUaR5h1mBOyn1e6ao-49" value="" style="endArrow=classic;startArrow=classic;html=1;rounded=0;strokeWidth=3;entryX=0.87;entryY=0.74;entryDx=0;entryDy=0;entryPerimeter=0;exitX=0;exitY=0.5;exitDx=0;exitDy=0;exitPerimeter=0;" parent="1" source="E-VrUaR5h1mBOyn1e6ao-36" target="OsrXYmDs21O4-yx2xXHt-41" edge="1">
          <mxGeometry width="50" height="50" relative="1" as="geometry">
            <mxPoint x="-1730" y="323" as="sourcePoint" />
            <mxPoint x="-3160" as="targetPoint" />
          </mxGeometry>
        </mxCell>
        <mxCell id="E-VrUaR5h1mBOyn1e6ao-50" value="" style="endArrow=classic;startArrow=classic;html=1;rounded=0;strokeWidth=3;entryX=1;entryY=0;entryDx=0;entryDy=0;entryPerimeter=0;exitX=0.12;exitY=0.1;exitDx=0;exitDy=0;exitPerimeter=0;" parent="1" source="OsrXYmDs21O4-yx2xXHt-60" target="OsrXYmDs21O4-yx2xXHt-41" edge="1">
          <mxGeometry width="50" height="50" relative="1" as="geometry">
            <mxPoint x="-1640" as="sourcePoint" />
            <mxPoint x="-3070" y="-323" as="targetPoint" />
          </mxGeometry>
        </mxCell>
        <mxCell id="E-VrUaR5h1mBOyn1e6ao-51" value="" style="endArrow=classic;startArrow=classic;html=1;rounded=0;strokeWidth=3;entryX=1.038;entryY=0.281;entryDx=0;entryDy=0;entryPerimeter=0;exitX=0.333;exitY=0;exitDx=0;exitDy=0;exitPerimeter=0;" parent="1" source="SFgPAnBROxGkWkuP0WC9-65" target="E-VrUaR5h1mBOyn1e6ao-36" edge="1">
          <mxGeometry width="50" height="50" relative="1" as="geometry">
            <mxPoint x="690" y="-277" as="sourcePoint" />
            <mxPoint x="-740" y="-600" as="targetPoint" />
          </mxGeometry>
        </mxCell>
        <mxCell id="E-VrUaR5h1mBOyn1e6ao-52" value="" style="endArrow=none;dashed=1;html=1;rounded=0;exitX=0.98;exitY=0.5;exitDx=0;exitDy=0;exitPerimeter=0;strokeWidth=3;" parent="1" source="OsrXYmDs21O4-yx2xXHt-52" edge="1">
          <mxGeometry width="50" height="50" relative="1" as="geometry">
            <mxPoint x="-2140" y="1740" as="sourcePoint" />
            <mxPoint x="-2050" y="1750" as="targetPoint" />
          </mxGeometry>
        </mxCell>
        <mxCell id="E-VrUaR5h1mBOyn1e6ao-53" value="1 ШТ" style="text;html=1;align=center;verticalAlign=middle;resizable=0;points=[];autosize=1;strokeColor=none;fillColor=none;fontSize=24;" parent="1" vertex="1">
          <mxGeometry x="-2080" y="1690" width="80" height="40" as="geometry" />
        </mxCell>
        <mxCell id="e0U_q4dFK0T3OTYXu2bX-1" value="" style="endArrow=none;dashed=1;html=1;rounded=0;strokeWidth=3;exitX=0.98;exitY=0.5;exitDx=0;exitDy=0;exitPerimeter=0;" parent="1" source="SFgPAnBROxGkWkuP0WC9-65" edge="1">
          <mxGeometry width="50" height="50" relative="1" as="geometry">
            <mxPoint x="1050" y="-169.5" as="sourcePoint" />
            <mxPoint x="1050" y="-280" as="targetPoint" />
          </mxGeometry>
        </mxCell>
        <mxCell id="e0U_q4dFK0T3OTYXu2bX-2" value="11 ШТ" style="text;html=1;align=center;verticalAlign=middle;resizable=0;points=[];autosize=1;strokeColor=none;fillColor=none;fontSize=24;" parent="1" vertex="1">
          <mxGeometry x="990" y="-330" width="90" height="40" as="geometry" />
        </mxCell>
        <mxCell id="e0U_q4dFK0T3OTYXu2bX-4" value="" style="endArrow=none;dashed=1;html=1;rounded=0;strokeWidth=3;exitX=0.5;exitY=0.98;exitDx=0;exitDy=0;exitPerimeter=0;" parent="1" source="OsrXYmDs21O4-yx2xXHt-62" edge="1">
          <mxGeometry width="50" height="50" relative="1" as="geometry">
            <mxPoint x="590" y="2200" as="sourcePoint" />
            <mxPoint x="300" y="2370" as="targetPoint" />
          </mxGeometry>
        </mxCell>
        <mxCell id="e0U_q4dFK0T3OTYXu2bX-5" value="4 ШТ" style="text;html=1;align=center;verticalAlign=middle;resizable=0;points=[];autosize=1;strokeColor=none;fillColor=none;fontSize=24;" parent="1" vertex="1">
          <mxGeometry x="310" y="2350" width="80" height="40" as="geometry" />
        </mxCell>
        <mxCell id="e0U_q4dFK0T3OTYXu2bX-6" value="" style="endArrow=none;dashed=1;html=1;rounded=0;strokeWidth=3;exitX=0;exitY=0.5;exitDx=0;exitDy=0;exitPerimeter=0;" parent="1" source="OsrXYmDs21O4-yx2xXHt-41" edge="1">
          <mxGeometry width="50" height="50" relative="1" as="geometry">
            <mxPoint x="-3600" y="-170" as="sourcePoint" />
            <mxPoint x="-3770" y="-300" as="targetPoint" />
          </mxGeometry>
        </mxCell>
        <mxCell id="e0U_q4dFK0T3OTYXu2bX-7" value="3 ШТ" style="text;html=1;align=center;verticalAlign=middle;resizable=0;points=[];autosize=1;strokeColor=none;fillColor=none;fontSize=24;" parent="1" vertex="1">
          <mxGeometry x="640" y="-2200" width="80" height="40" as="geometry" />
        </mxCell>
        <mxCell id="e0U_q4dFK0T3OTYXu2bX-8" value="" style="endArrow=none;dashed=1;html=1;rounded=0;strokeWidth=3;exitX=0.5;exitY=0;exitDx=0;exitDy=0;exitPerimeter=0;" parent="1" source="OsrXYmDs21O4-yx2xXHt-30" edge="1">
          <mxGeometry width="50" height="50" relative="1" as="geometry">
            <mxPoint x="-3200" y="-2199" as="sourcePoint" />
            <mxPoint x="-3072" y="-2170" as="targetPoint" />
          </mxGeometry>
        </mxCell>
        <mxCell id="e0U_q4dFK0T3OTYXu2bX-9" value="3 ШТ" style="text;html=1;align=center;verticalAlign=middle;resizable=0;points=[];autosize=1;strokeColor=none;fillColor=none;fontSize=24;" parent="1" vertex="1">
          <mxGeometry x="-3055" y="-2180" width="80" height="40" as="geometry" />
        </mxCell>
        <mxCell id="e0U_q4dFK0T3OTYXu2bX-11" value="" style="endArrow=none;dashed=1;html=1;rounded=0;strokeWidth=3;exitX=0.5;exitY=0;exitDx=0;exitDy=0;exitPerimeter=0;" parent="1" source="SFgPAnBROxGkWkuP0WC9-20" edge="1">
          <mxGeometry width="50" height="50" relative="1" as="geometry">
            <mxPoint x="620" y="-2003" as="sourcePoint" />
            <mxPoint x="620" y="-2190" as="targetPoint" />
          </mxGeometry>
        </mxCell>
        <mxCell id="e0U_q4dFK0T3OTYXu2bX-12" value="4 ШТ" style="text;html=1;align=center;verticalAlign=middle;resizable=0;points=[];autosize=1;strokeColor=none;fillColor=none;fontSize=24;" parent="1" vertex="1">
          <mxGeometry x="-3790" y="-350" width="80" height="40" as="geometry" />
        </mxCell>
        <mxCell id="e0U_q4dFK0T3OTYXu2bX-13" value="" style="endArrow=none;dashed=1;html=1;rounded=0;strokeWidth=3;exitX=0.5;exitY=0.98;exitDx=0;exitDy=0;exitPerimeter=0;" parent="1" source="SFgPAnBROxGkWkuP0WC9-36" edge="1">
          <mxGeometry width="50" height="50" relative="1" as="geometry">
            <mxPoint x="-1280" y="3790" as="sourcePoint" />
            <mxPoint x="-1250" y="4200" as="targetPoint" />
          </mxGeometry>
        </mxCell>
        <mxCell id="e0U_q4dFK0T3OTYXu2bX-14" value="1 ШТ" style="text;html=1;align=center;verticalAlign=middle;resizable=0;points=[];autosize=1;strokeColor=none;fillColor=none;fontSize=24;" parent="1" vertex="1">
          <mxGeometry x="-1240" y="4180" width="80" height="40" as="geometry" />
        </mxCell>
        <mxCell id="-CdBd9gb3SCql8yyNzY8-3" value="" style="endArrow=none;dashed=1;html=1;rounded=0;strokeWidth=3;exitX=0.5;exitY=1;exitDx=0;exitDy=0;exitPerimeter=0;" parent="1" source="OsrXYmDs21O4-yx2xXHt-42" edge="1">
          <mxGeometry width="50" height="50" relative="1" as="geometry">
            <mxPoint x="-3315" y="534" as="sourcePoint" />
            <mxPoint x="-3355" y="830" as="targetPoint" />
          </mxGeometry>
        </mxCell>
        <mxCell id="SFgPAnBROxGkWkuP0WC9-30" value="20 ШТ" style="text;html=1;align=center;verticalAlign=middle;resizable=0;points=[];autosize=1;strokeColor=none;fillColor=none;fontSize=24;" parent="1" vertex="1">
          <mxGeometry x="-3460" y="800" width="90" height="40" as="geometry" />
        </mxCell>
        <mxCell id="-CdBd9gb3SCql8yyNzY8-4" value="&lt;font style=&quot;font-size: 48px;&quot;&gt;Здание №2&lt;/font&gt;" style="text;html=1;align=center;verticalAlign=middle;whiteSpace=wrap;rounded=0;" parent="1" vertex="1">
          <mxGeometry x="-3380" y="30" width="450" height="70" as="geometry" />
        </mxCell>
        <mxCell id="lUXXQzoz3SAJVB3QiReC-2" value="&lt;font style=&quot;font-size: 48px;&quot;&gt;Здание №5&lt;/font&gt;" style="text;html=1;align=center;verticalAlign=middle;whiteSpace=wrap;rounded=0;" vertex="1" parent="1">
          <mxGeometry x="-3115" y="1940" width="450" height="70" as="geometry" />
        </mxCell>
        <mxCell id="lUXXQzoz3SAJVB3QiReC-3" value="&lt;font style=&quot;font-size: 48px;&quot;&gt;Здание №6&lt;/font&gt;" style="text;html=1;align=center;verticalAlign=middle;whiteSpace=wrap;rounded=0;" vertex="1" parent="1">
          <mxGeometry x="-1480" y="3330" width="450" height="70" as="geometry" />
        </mxCell>
        <mxCell id="lUXXQzoz3SAJVB3QiReC-4" value="&lt;font style=&quot;font-size: 48px;&quot;&gt;Здание №7&lt;/font&gt;" style="text;html=1;align=center;verticalAlign=middle;whiteSpace=wrap;rounded=0;" vertex="1" parent="1">
          <mxGeometry x="370" y="1860" width="450" height="70" as="geometry" />
        </mxCell>
        <mxCell id="lUXXQzoz3SAJVB3QiReC-5" value="&lt;font style=&quot;font-size: 48px;&quot;&gt;Здание №4&lt;/font&gt;" style="text;html=1;align=center;verticalAlign=middle;whiteSpace=wrap;rounded=0;" vertex="1" parent="1">
          <mxGeometry x="290" y="-330" width="450" height="70" as="geometry" />
        </mxCell>
        <mxCell id="lUXXQzoz3SAJVB3QiReC-8" value="&lt;font style=&quot;font-size: 48px;&quot;&gt;Здание №1&lt;/font&gt;" style="text;html=1;align=center;verticalAlign=middle;whiteSpace=wrap;rounded=0;" vertex="1" parent="1">
          <mxGeometry x="-3297" y="-1730" width="450" height="70" as="geometry" />
        </mxCell>
      </root>
    </mxGraphModel>
  </diagram>
</mxfile>
